<svg xmlns="http://www.w3.org/2000/svg" width="81" height="80" viewBox="0 0 81 80"><ellipse fill="#FFF" cx="40.3" cy="39.6" rx="40.3" ry="39.6"/><path fill="#254195" d="M68 51c-5.1 11.5-15 19.6-27.9 19.7-9.4.1-17.7-3.1-23.7-8.7l-3.6 1.5v-5.6c-3.9-5.3-6.2-12.1-6.2-19.7 0-19.6 15-35 35.9-35 3.4 0 6.5.5 8.8 1.1-3.6-1.1-7.2-1.8-11.1-1.8-22.5 0-37.6 18.2-37.6 37 0 20.5 16.1 37.6 37.1 37.6 20.1 0 31-14.2 34.5-22.7L68 51z"/><path fill="#E22B2E" d="M62.8 46.9c3-.3 5-1.5 6.1-2.6 1-1 1.3-2.4 1.3-3.4v-6.3l-7.8 1.7v1.8c0 1.2.6 1.9 1.9 1.6.4-.1 1-.3 1-.3v1.5s.1.8-1.9 1.2c-2.6.4-3.7-1.2-3.8-4 .1-3 1.8-4.7 3.8-5.2 2.3-.5 3.6 0 4.4.1 2.6.4 3.3-3.5 1-4.4-1.7-.7-4-.8-6.2-.4-2.9.6-8.5 3-8.5 10.8 0 6.4 4.6 8.4 8.7 7.9M37.4 53.6s2.4-.8 2.6-.9c1.9-.7 2.6-1.8 2.6-3.8v-6.4l5.6 6.4c.9.9 2 1 3.1.7 1.1-.3 2-1.3 2-2.7v-16s-1.4.3-2.6.6c-1.4.4-2.4 1.3-2.4 3.6v5.5s-3.1-3.9-5.2-6c-1.1-1.1-2.9-.4-2.9-.4l-2.7.8-.1 18.6zM35.7 35.6s-1.7.5-3 1c-1.8.6-2.8 1.7-2.8 4.4v15.3s1.6-.5 3-1.1c2.1-.8 2.8-1.8 2.8-4V35.6M27.3 39.2c-1.5-.7-2.9.1-3.4.9l-4.7 8.1v-6.5L13.6 44v18.4l3.9-1.7s.8-.2 1.2-1c.4-.7.4-1.8.4-1.8v-5.8l4.4 4.7c1 1 2.7 1.5 4.3.3 1.4-1.1 1.2-3.1.4-4l-4-4s3.5-5.6 4.1-6.5c.8-1.2.4-2.7-1-3.4M16.3 36.7c0-1-.8-1.6-2.2-.9v3.3s.4-.2.8-.3c.8-.4 1.4-1.1 1.4-2.1m-2.2-2.9l.6-.3c.7-.4 1.3-1 1.3-1.9 0-1-.8-1.2-1.9-.7v2.9zm5.8 2.5c0 2.6-1.8 3.9-4.2 4.9l-4.9 2.1V29.9s3.1-1.3 4.1-1.6c2.9-1 4.6.2 4.6 2.1 0 1.3-.5 2.4-1.7 3.3 1 .3 2 1.2 2.1 2.6M29.2 32c0 3.7-1.7 5.1-4.3 5.9-2.9.9-4.8-.5-4.8-3.3v-8.2s.6-.3 1.7-.6c.9-.3 1.7 0 1.7 1.2v6.8c0 .8.4 1.3 1.2 1.2 1-.3 1.1-1.3 1.2-2.1v-8.3s.9-.3 1.6-.6c.9-.3 1.7 0 1.7 1.2V32zM50.5 29.8V17.6c2.1-.5 5.5-1.2 7.2-1.5v1.4c0 .7-.3 1.3-1 1.4-1 .2-2.8.6-2.8.6v1.9l3.5-.8V22c0 .8-.4 1.2-1 1.3l-2.5.5v2.4l4-.9v1.4c0 .9-.5 1.4-1.2 1.6-2.2.6-6.2 1.5-6.2 1.5M33.5 27.9s2-1 2-2.6c0-1.4-1.3-1.1-2-.8v3.4zm0 1.9v3.3c0 .9-.6 1.5-1.4 1.8-.6.2-2 .7-2 .7V23s2.8-1 4.5-1.4c2.6-.6 4.4.6 4.3 2.6 0 2-1.1 3.2-2.1 4l2.2 2.1c.7.6.7 1.8 0 2.5-.4.4-1.6.9-2.6-.1l-2.9-2.9zM61.9 21.2s2-.7 1.9-2.3c0-1.3-1.3-1.1-1.9-.9v3.2zm-3.3 6.9v-12s3.5-.6 4.4-.7c2.5-.3 4.2 1.1 4.2 3.1 0 1.7-1.1 2.8-2 3.4 0 0 1.7 1.9 2.2 2.4.6.7.6 1.9-.3 2.4-.9.6-1.8.3-2.3-.3L61.9 23v2.9c0 .9-.5 1.5-1.4 1.7l-1.9.5zM49.7 27.7c0 .7-.3 1.6-.9 2.1-.6.6-1.6 1.2-3.4 1.5-3.3.6-6-1.2-6-5.4 0-4 2.4-7.4 7.1-7.6 2.2-.1 3.2.6 3.1 1.8 0 1.1-.8 1.7-2.1 1.5-.5-.1-1.2-.2-1.9 0-1.5.4-2.6 1.7-2.6 4.1 0 1.8.7 2.7 1.9 2.7.9 0 1.7-.3 1.7-.9v-1.4s-.3.1-.7.2c-.7.1-1.1-.3-1.1-.9V24l5-1.1-.1 4.8z"/><path fill="#F4A932" d="M48.3 13.7c1.2-.3 2-1.2 2-2.2 0-1.6-3.6-3.9-9.5-4.3 5.8-.5 12.1 2.1 12.1 4.3 0 1.3-1.7 1.4-4.6 2.2M22 20.2c-.1 1-1.4.9-1.3-.1.2-2.4 3.9-8.2 9.4-10.7-3.4 2.2-7 6.4-8.1 10.8m36-8s-2.8-4.7-12.6-5.8C40.2 5.8 33 6.9 28 9.6c-9 4.9-10.4 12.9-10.4 12.9-.1.2-.1.8.1 1.1.2.3.5.3.9.1 3.2-1.1 12.8-4.3 18.8-5.8 8.6-2.3 15.6-3.7 20.1-4.4.3-.1.6-.2.7-.5.2-.4-.2-.8-.2-.8M61.2 52.6c-2.4 5-6.6 8.4-11.1 10.1 5-2.9 7.9-7 9.2-10.6.6-1.7 2.6-.9 1.9.5m3.4-4.2c-.2-.2-.6-.2-1-.1-10.4 2.4-27.7 7.7-37.7 12-.4.2-.6.3-.8.6-.2.5.3 1 .3 1 2 2.6 11.1 5.8 20.9 3.4 15-3.6 18.1-14.2 18.5-15.7 0-.4.1-.9-.2-1.2"/><path fill="#E22B2E" d="M70.6 50.2c0 1.1.9 1.9 1.9 1.9 1 0 1.9-.8 1.9-1.9 0-1.1-.9-1.9-1.9-1.9-1 0-1.9.8-1.9 1.9m.4 0c0-.9.7-1.6 1.6-1.6.9 0 1.6.7 1.6 1.6 0 .9-.7 1.6-1.6 1.6-.9 0-1.6-.7-1.6-1.6m.7 1.1h.4v-1h.3l.5 1h.5l-.6-1c.3 0 .6-.2.6-.6 0-.5-.3-.7-.9-.7h-.8v2.3zm.5-1.9h.4c.2 0 .5 0 .5.3s-.2.3-.4.3h-.4v-.6z"/><ellipse fill="#FFF" cx="40.3" cy="39.6" rx="40.3" ry="39.6"/><path fill="#254195" d="M68 51c-5.1 11.5-15 19.6-27.9 19.7-9.4.1-17.7-3.1-23.7-8.7l-3.6 1.5v-5.6c-3.9-5.3-6.2-12.1-6.2-19.7 0-19.6 15-35 35.9-35 3.4 0 6.5.5 8.8 1.1-3.6-1.1-7.2-1.8-11.1-1.8-22.5 0-37.6 18.2-37.6 37 0 20.5 16.1 37.6 37.1 37.6 20.1 0 31-14.2 34.5-22.7L68 51z"/><path fill="#E22B2E" d="M62.8 46.9c3-.3 5-1.5 6.1-2.6 1-1 1.3-2.4 1.3-3.4v-6.3l-7.8 1.7v1.8c0 1.2.6 1.9 1.9 1.6.4-.1 1-.3 1-.3v1.5s.1.8-1.9 1.2c-2.6.4-3.7-1.2-3.8-4 .1-3 1.8-4.7 3.8-5.2 2.3-.5 3.6 0 4.4.1 2.6.4 3.3-3.5 1-4.4-1.7-.7-4-.8-6.2-.4-2.9.6-8.5 3-8.5 10.8 0 6.4 4.6 8.4 8.7 7.9M37.4 53.6s2.4-.8 2.6-.9c1.9-.7 2.6-1.8 2.6-3.8v-6.4l5.6 6.4c.9.9 2 1 3.1.7 1.1-.3 2-1.3 2-2.7v-16s-1.4.3-2.6.6c-1.4.4-2.4 1.3-2.4 3.6v5.5s-3.1-3.9-5.2-6c-1.1-1.1-2.9-.4-2.9-.4l-2.7.8-.1 18.6zM35.7 35.6s-1.7.5-3 1c-1.8.6-2.8 1.7-2.8 4.4v15.3s1.6-.5 3-1.1c2.1-.8 2.8-1.8 2.8-4V35.6M27.3 39.2c-1.5-.7-2.9.1-3.4.9l-4.7 8.1v-6.5L13.6 44v18.4l3.9-1.7s.8-.2 1.2-1c.4-.7.4-1.8.4-1.8v-5.8l4.4 4.7c1 1 2.7 1.5 4.3.3 1.4-1.1 1.2-3.1.4-4l-4-4s3.5-5.6 4.1-6.5c.8-1.2.4-2.7-1-3.4M16.3 36.7c0-1-.8-1.6-2.2-.9v3.3s.4-.2.8-.3c.8-.4 1.4-1.1 1.4-2.1m-2.2-2.9l.6-.3c.7-.4 1.3-1 1.3-1.9 0-1-.8-1.2-1.9-.7v2.9zm5.8 2.5c0 2.6-1.8 3.9-4.2 4.9l-4.9 2.1V29.9s3.1-1.3 4.1-1.6c2.9-1 4.6.2 4.6 2.1 0 1.3-.5 2.4-1.7 3.3 1 .3 2 1.2 2.1 2.6M29.2 32c0 3.7-1.7 5.1-4.3 5.9-2.9.9-4.8-.5-4.8-3.3v-8.2s.6-.3 1.7-.6c.9-.3 1.7 0 1.7 1.2v6.8c0 .8.4 1.3 1.2 1.2 1-.3 1.1-1.3 1.2-2.1v-8.3s.9-.3 1.6-.6c.9-.3 1.7 0 1.7 1.2V32zM50.5 29.8V17.6c2.1-.5 5.5-1.2 7.2-1.5v1.4c0 .7-.3 1.3-1 1.4-1 .2-2.8.6-2.8.6v1.9l3.5-.8V22c0 .8-.4 1.2-1 1.3l-2.5.5v2.4l4-.9v1.4c0 .9-.5 1.4-1.2 1.6-2.2.6-6.2 1.5-6.2 1.5M33.5 27.9s2-1 2-2.6c0-1.4-1.3-1.1-2-.8v3.4zm0 1.9v3.3c0 .9-.6 1.5-1.4 1.8-.6.2-2 .7-2 .7V23s2.8-1 4.5-1.4c2.6-.6 4.4.6 4.3 2.6 0 2-1.1 3.2-2.1 4l2.2 2.1c.7.6.7 1.8 0 2.5-.4.4-1.6.9-2.6-.1l-2.9-2.9zM61.9 21.2s2-.7 1.9-2.3c0-1.3-1.3-1.1-1.9-.9v3.2zm-3.3 6.9v-12s3.5-.6 4.4-.7c2.5-.3 4.2 1.1 4.2 3.1 0 1.7-1.1 2.8-2 3.4 0 0 1.7 1.9 2.2 2.4.6.7.6 1.9-.3 2.4-.9.6-1.8.3-2.3-.3L61.9 23v2.9c0 .9-.5 1.5-1.4 1.7l-1.9.5zM49.7 27.7c0 .7-.3 1.6-.9 2.1-.6.6-1.6 1.2-3.4 1.5-3.3.6-6-1.2-6-5.4 0-4 2.4-7.4 7.1-7.6 2.2-.1 3.2.6 3.1 1.8 0 1.1-.8 1.7-2.1 1.5-.5-.1-1.2-.2-1.9 0-1.5.4-2.6 1.7-2.6 4.1 0 1.8.7 2.7 1.9 2.7.9 0 1.7-.3 1.7-.9v-1.4s-.3.1-.7.2c-.7.1-1.1-.3-1.1-.9V24l5-1.1-.1 4.8z"/><path fill="#F4A932" d="M48.3 13.7c1.2-.3 2-1.2 2-2.2 0-1.6-3.6-3.9-9.5-4.3 5.8-.5 12.1 2.1 12.1 4.3 0 1.3-1.7 1.4-4.6 2.2M22 20.2c-.1 1-1.4.9-1.3-.1.2-2.4 3.9-8.2 9.4-10.7-3.4 2.2-7 6.4-8.1 10.8m36-8s-2.8-4.7-12.6-5.8C40.2 5.8 33 6.9 28 9.6c-9 4.9-10.4 12.9-10.4 12.9-.1.2-.1.8.1 1.1.2.3.5.3.9.1 3.2-1.1 12.8-4.3 18.8-5.8 8.6-2.3 15.6-3.7 20.1-4.4.3-.1.6-.2.7-.5.2-.4-.2-.8-.2-.8M61.2 52.6c-2.4 5-6.6 8.4-11.1 10.1 5-2.9 7.9-7 9.2-10.6.6-1.7 2.6-.9 1.9.5m3.4-4.2c-.2-.2-.6-.2-1-.1-10.4 2.4-27.7 7.7-37.7 12-.4.2-.6.3-.8.6-.2.5.3 1 .3 1 2 2.6 11.1 5.8 20.9 3.4 15-3.6 18.1-14.2 18.5-15.7 0-.4.1-.9-.2-1.2"/><path fill="#E22B2E" d="M70.6 50.2c0 1.1.9 1.9 1.9 1.9 1 0 1.9-.8 1.9-1.9 0-1.1-.9-1.9-1.9-1.9-1 0-1.9.8-1.9 1.9m.4 0c0-.9.7-1.6 1.6-1.6.9 0 1.6.7 1.6 1.6 0 .9-.7 1.6-1.6 1.6-.9 0-1.6-.7-1.6-1.6m.7 1.1h.4v-1h.3l.5 1h.5l-.6-1c.3 0 .6-.2.6-.6 0-.5-.3-.7-.9-.7h-.8v2.3zm.5-1.9h.4c.2 0 .5 0 .5.3s-.2.3-.4.3h-.4v-.6z"/></svg>